<svg xmlns="http://www.w3.org/2000/svg" width="256" height="256" viewBox="0 0 256 256">
  <defs><linearGradient id="g" x1="0" y1="0" x2="1" y2="1"><stop stop-color="#172554"/><stop offset="1" stop-color="#2563eb"/></linearGradient></defs>
  <rect width="256" height="256" rx="56" fill="url(#g)"/>
  <path d="M58 78c0-11 9-20 20-20h100c11 0 20 9 20 20v70c0 11-9 20-20 20H78c-11 0-20-9-20-20V78Z" fill="none" stroke="#fff" stroke-width="13"/>
  <path d="M85 199h86M128 168v31" stroke="#93c5fd" stroke-width="13" stroke-linecap="round"/>
  <path d="m91 111 21-21m-21 0 21 21" stroke="#fff" stroke-width="10" stroke-linecap="round"/>
  <circle cx="158" cy="92" r="7" fill="#fff"/><circle cx="177" cy="111" r="7" fill="#fff"/>
  <path d="M92 137h72" stroke="#93c5fd" stroke-width="9" stroke-linecap="round"/>
</svg>
